<svg width="56" height="56" viewBox="0 0 56 56" fill="none" xmlns="http://www.w3.org/2000/svg"><g clip-path="url(#a)" fill="#C75240"><path d="M7 25.666a2.327 2.327 0 0 1-1.65-.683 2.33 2.33 0 0 1 0-3.3L21.464 5.57a2.33 2.33 0 0 1 3.3 0 2.33 2.33 0 0 1 0 3.299L8.65 24.983a2.327 2.327 0 0 1-1.65.683z"/><path d="M26.25 14c-.455 0-.903-.177-1.236-.513L16.847 5.32a1.747 1.747 0 0 1-.38-1.906c.27-.654.91-1.08 1.617-1.08h8.166c.966 0 1.75.784 1.75 1.75v8.166A1.752 1.752 0 0 1 26.25 14zM16.333 35.583V49h-14V35.583a2.918 2.918 0 0 1 2.917-2.916h8.166a2.918 2.918 0 0 1 2.917 2.916zM35 26.25V49H21V26.25a2.918 2.918 0 0 1 2.917-2.916h8.166A2.918 2.918 0 0 1 35 26.25zM53.667 16.917V49h-14V16.917A2.918 2.918 0 0 1 42.584 14h8.166a2.918 2.918 0 0 1 2.917 2.917zM54.25 56H1.75a1.75 1.75 0 0 1 0-3.5h52.5a1.75 1.75 0 0 1 0 3.5z"/></g><defs><clipPath id="a"><path fill="#fff" d="M0 0h56v56H0z"/></clipPath></defs></svg>