<svg width="56" height="56" viewBox="0 0 56 56" fill="none" xmlns="http://www.w3.org/2000/svg"><path d="M16.455 45.723a3.926 3.926 0 0 1-3.926 3.925H7.666a3.926 3.926 0 0 1-3.926-3.925.75.75 0 0 1 .794-.765c.317.018 11.284.011 11.168.011.416 0 .753.337.753.754zm34.992-.765c-.318.018-11.284.011-11.168.011a.753.753 0 0 0-.753.754 3.926 3.926 0 0 0 3.926 3.925h4.863a3.926 3.926 0 0 0 3.926-3.925.751.751 0 0 0-.794-.765zm-2.8-23.206a.944.944 0 0 0-.858-.634 3.617 3.617 0 0 1-3.43-3.617.942.942 0 0 0-.72-.912 2.81 2.81 0 0 1-2.088-2.521.933.933 0 0 0-.872-.862 2.79 2.79 0 0 1-1.777-.812c-.921-.921-1.223-2.226-.181-3.655a.93.93 0 0 0-.589-1.458 55.842 55.842 0 0 0-22.225.393 6.89 6.89 0 0 0-4.997 4.363l-3.577 9.715a.932.932 0 0 0 .875 1.254h39.566a.932.932 0 0 0 .874-1.254zm7.334 9.679v6.808a4.923 4.923 0 0 1-4.923 4.922H4.923A4.923 4.923 0 0 1 0 38.24V31.43c0-3.644 2.868-6.559 5.702-6.559h44.577c1.56 0 2.634.812 2.517.737a6.914 6.914 0 0 1 3.185 5.822zm-39.454.054a9.535 9.535 0 0 0-5.044-1.442 3.674 3.674 0 0 0-3.674 3.813c.073 1.984 1.715 3.54 3.74 3.54h3.289c3.215 0 4.42-4.21 1.69-5.911zm30.618-.317a3.646 3.646 0 0 0-2.647-1.125c-1.785 0-3.53.498-5.045 1.442-2.729 1.7-1.527 5.91 1.69 5.91h3.29c3.35 0 4.932-3.924 2.712-6.228zm.828-15.41c-1.551 0-2.335 1.887-1.236 2.986a1.749 1.749 0 0 0 2.474 0c1.1-1.1.313-2.986-1.238-2.986zm4.29-2.54a6.061 6.061 0 0 0-8.578 0 .933.933 0 1 0 1.32 1.32 4.196 4.196 0 0 1 5.938 0 .93.93 0 0 0 .66.274c.823 0 1.249-1.004.66-1.593zm3.463-3.463a10.957 10.957 0 0 0-15.504 0 .933.933 0 1 0 1.32 1.32 9.092 9.092 0 0 1 12.864 0 .93.93 0 0 0 .66.273c.826 0 1.248-1.005.66-1.593z" fill="#C75240"/></svg>