<svg width="60" height="60" viewBox="0 0 60 60" fill="none" xmlns="http://www.w3.org/2000/svg"><g clip-path="url(#a)" fill="#C75240"><path d="M47.25 3.167c-1.493-1.405-3.404-2.08-5.329-2.08a8.495 8.495 0 0 0-5.988 2.49l-.7.7-.7-.703a8.502 8.502 0 0 0-5.989-2.486c-1.925 0-3.835.674-5.328 2.08a7.959 7.959 0 0 0-.176 11.425l12.193 12.192 12.192-12.192a7.959 7.959 0 0 0-.175-11.426zM59.217 32.994c-1.874-1.27-4.082-.91-6.037.218-1.956 1.13-13.182 10.728-13.182 10.728l-11.051.002c-.514 0-1.071-.578-1.071-1.09 0-.602.525-1.07 1.07-1.07h6.762c2.367 0 5.016-1.543 5.016-4.284 0-2.913-2.65-4.283-5.016-4.283-4.106 0-4.904.017-4.904.017-1.645 0-3.314-.099-4.599-.786a12.681 12.681 0 0 0-5.795-1.375c-3.538 0-6.706 1.411-8.877 3.636L0 46.062l12.85 12.85 4.283-4.283h21.689a8.817 8.817 0 0 0 5.855-2.225L59.363 35.93c.897-.797.846-2.261-.146-2.936z"/></g><defs><clipPath id="a"><path fill="#fff" d="M0 0h60v60H0z"/></clipPath></defs></svg>