<svg width="56" height="56" viewBox="0 0 56 56" fill="none" xmlns="http://www.w3.org/2000/svg"><g clip-path="url(#a)" fill="#C75240"><path d="M48.68 15.18a1 1 0 0 0 0 1.42c6.348 6.353 6.348 16.647 0 23a1 1 0 0 0 .71 1.71 1 1 0 0 0 .71-.31c7.12-7.142 7.12-18.698 0-25.84a1 1 0 0 0-1.42.02z"/><path d="M45.2 18.67a1 1 0 0 0 0 1.42c4.41 4.422 4.41 11.578 0 16a1 1 0 1 0 1.41 1.42c5.2-5.211 5.2-13.649 0-18.86a1 1 0 0 0-1.41.02z"/><path d="M41.71 34a1 1 0 0 0 1.41 0 8.4 8.4 0 0 0 0-11.88 1 1 0 1 0-1.41 1.42 6.42 6.42 0 0 1 0 9.05 1 1 0 0 0 0 1.41zM5.5 21h22v2h-22v-2zM5.5 26a1 1 0 0 0 1 1h20a1 1 0 0 0 1-1v-1h-22v1zM21.5 2a2 2 0 0 0 1.46-.63L24.19 0H8.81l1.28 1.37a2 2 0 0 0 1.46.63h9.95zM2.5 56h28a2 2 0 0 0 2-2v-1.56a3.909 3.909 0 0 1-2 .56h-28a3.909 3.909 0 0 1-2-.56V54a2 2 0 0 0 2 2zM5.5 14v5h22v-5a1 1 0 0 0-1-1h-20a1 1 0 0 0-1 1zm18 1h1a1 1 0 1 1 0 2h-1a1 1 0 1 1 0-2zm-15 0h1a1 1 0 1 1 0 2h-1a1 1 0 1 1 0-2z"/><path d="M6.07 0H2.5a2 2 0 0 0-2 2v47a2 2 0 0 0 2 2h28a2 2 0 0 0 2-2V2a2 2 0 0 0-2-2h-3.57l-2.56 2.74A4 4 0 0 1 21.5 4h-9.9a4 4 0 0 1-2.92-1.26L6.07 0zm7.14 42.05a1.004 1.004 0 0 1-1.42-1.42 1 1 0 0 0 0-1.41 1 1 0 0 1 0-1.41c1.34-1.34 3.54 2.12 1.42 4.24zm2.12 3.12a1 1 0 0 1-.71-1.71 5 5 0 0 0 0-7.07 1 1 0 1 1 1.42-1.41 7 7 0 0 1 0 9.9 1 1 0 0 1-.71.29zm3.53 2.54a1 1 0 1 1-1.41-1.42 9 9 0 0 0 0-12.73 1 1 0 0 1 1.41-1.41 11 11 0 0 1 0 15.56zM26.5 11a3 3 0 0 1 3 3v12a3 3 0 0 1-3 3h-20a3 3 0 0 1-3-3V14a3 3 0 0 1 3-3h20z"/></g><defs><clipPath id="a"><path fill="#fff" d="M0 0h56v56H0z"/></clipPath></defs></svg>