<svg width="56" height="56" viewBox="0 0 56 56" fill="none" xmlns="http://www.w3.org/2000/svg"><g clip-path="url(#a)" fill="#C75240"><path d="M28 28a7 7 0 1 0 0-14 7 7 0 0 0 0 14zM18.667 35v4.667A2.333 2.333 0 0 0 21 42h14a2.333 2.333 0 0 0 2.334-2.333V35a7.007 7.007 0 0 0-7-7h-4.667a7.008 7.008 0 0 0-7 7z"/><path d="M28 4.667A23.234 23.234 0 0 1 46.675 14H42v4.667h9.333a2.334 2.334 0 0 0 2.264-1.768l2.333-9.333-4.527-1.132-1.142 4.57A28.006 28.006 0 0 0 0 28h4.667A23.36 23.36 0 0 1 28 4.667zM51.333 28A23.339 23.339 0 0 1 9.325 42H14v-4.667H4.667a2.333 2.333 0 0 0-2.264 1.768L.07 48.434l4.527 1.132 1.143-4.57A28.006 28.006 0 0 0 56 28h-4.667z"/></g><defs><clipPath id="a"><path fill="#fff" d="M0 0h56v56H0z"/></clipPath></defs></svg>