<svg width="56" height="56" viewBox="0 0 56 56" fill="none" xmlns="http://www.w3.org/2000/svg"><g clip-path="url(#a)" fill="#C75240"><path d="M50.918.035C50.86.03 50.811 0 50.75 0H25.667c-3.86 0-7 3.14-7 7v2.333a2.334 2.334 0 0 0 4.666 0V7a2.337 2.337 0 0 1 2.334-2.333h10.87l-.711.238a4.69 4.69 0 0 0-3.159 4.428v35h-7A2.337 2.337 0 0 1 23.333 42v-4.667a2.334 2.334 0 0 0-4.666 0V42c0 3.86 3.14 7 7 7h7v2.333A4.671 4.671 0 0 0 37.333 56c.5 0 .974-.072 1.487-.231l14.019-4.674A4.69 4.69 0 0 0 56 46.667v-42c0-2.72-2.345-4.854-5.082-4.632z"/><path d="M24.983 21.684L15.65 12.35A2.333 2.333 0 0 0 11.667 14v7H2.333a2.334 2.334 0 0 0 0 4.667h9.334v7a2.333 2.333 0 0 0 3.983 1.65l9.333-9.334a2.33 2.33 0 0 0 0-3.3z"/></g><defs><clipPath id="a"><path fill="#fff" d="M0 0h56v56H0z"/></clipPath></defs></svg>