<svg width="56" height="56" viewBox="0 0 56 56" fill="none" xmlns="http://www.w3.org/2000/svg"><path d="M53.798 7.488H42.786V3.209h-4.404v4.279H17.618V3.209h-4.404v4.279H2.201C1.007 7.488 0 8.494 0 9.69v40.899c0 1.195 1.007 2.202 2.202 2.202h51.596c1.195 0 2.202-1.007 2.202-2.202v-40.9a2.189 2.189 0 0 0-2.202-2.201zM39.703 25.294L26.05 38.885c-.88.881-2.265.881-3.083.063l-.063-.063-6.606-6.606a2.203 2.203 0 0 1 0-3.146c.88-.881 2.265-.881 3.146 0l5.033 5.096 12.081-12.08c.881-.882 2.265-.882 3.146 0 .881.88.881 2.264 0 3.145z" fill="#C75240"/></svg>