<svg width="62" height="55" viewBox="0 0 62 55" fill="none" xmlns="http://www.w3.org/2000/svg"><path d="M19 0h24v24H19V0zm22.035 18.277c-.175-1.098-.891-2.015-3.004-2.874-.734-.344-1.554-.586-1.797-1.141-.09-.329-.105-.508-.047-.704.152-.648.914-.84 1.516-.66.39.121.75.418.976.899 1.035-.676 1.035-.676 1.755-1.125-.27-.418-.402-.602-.586-.777-.63-.707-1.469-1.066-2.832-1.035l-.707.09c-.676.164-1.32.524-1.711 1.004-1.137 1.29-.809 3.54.57 4.473 1.363 1.02 3.359 1.242 3.617 2.204.239 1.172-.87 1.547-1.969 1.41-.808-.18-1.258-.586-1.754-1.336l-1.828 1.05c.206.482.449.689.808 1.11 1.739 1.754 6.09 1.664 6.87-1.004.028-.09.24-.707.075-1.649l.048.066zm-8.984-7.246h-2.247c0 1.937-.011 3.863-.011 5.805 0 1.23.062 2.363-.137 2.711-.332.688-1.18.602-1.567.481-.394-.195-.598-.465-.828-.856-.066-.105-.113-.195-.129-.195l-1.824 1.125c.305.63.75 1.172 1.325 1.516.855.512 2.004.676 3.207.407.781-.227 1.457-.692 1.808-1.41.512-.93.402-2.07.398-3.348.012-2.056 0-4.11 0-6.18l.005-.056z" fill="url(#a)"/><path d="M1.17 50.52a3.97 3.97 0 0 1-1.072-.13V48.88c.312.078.597.117.855.117.399 0 .684-.125.856-.375.171-.246.257-.633.257-1.16v-8.027h1.817v8.015c0 1-.229 1.762-.686 2.285-.457.524-1.133.785-2.027.785zM10.059 48l-.346-.89h-.047c-.3.378-.611.642-.932.79-.316.145-.73.217-1.242.217-.629 0-1.125-.18-1.488-.539-.36-.36-.54-.871-.54-1.535 0-.695.243-1.207.727-1.535.489-.332 1.223-.516 2.204-.551l1.136-.035v-.287c0-.664-.34-.996-1.02-.996-.523 0-1.138.158-1.845.474l-.592-1.207c.754-.394 1.59-.591 2.508-.591.879 0 1.553.19 2.021.574.47.383.704.964.704 1.746V48h-1.248zm-.528-3.035l-.691.023c-.52.016-.906.11-1.16.282-.254.171-.381.433-.381.785 0 .504.289.755.867.755.414 0 .744-.119.99-.357.25-.238.375-.555.375-.95v-.538zM14.711 48l-2.496-6.55h1.869l1.266 3.732c.14.472.228.92.263 1.341h.035c.02-.375.108-.822.264-1.341l1.26-3.733h1.869L16.545 48H14.71zm9.434 0l-.346-.89h-.047c-.3.378-.611.642-.932.79-.316.145-.73.217-1.242.217-.629 0-1.125-.18-1.488-.539-.36-.36-.54-.871-.54-1.535 0-.695.243-1.207.727-1.535.489-.332 1.223-.516 2.203-.551l1.137-.035v-.287c0-.664-.34-.996-1.02-.996-.523 0-1.138.158-1.845.474l-.592-1.207c.754-.394 1.59-.591 2.508-.591.879 0 1.553.19 2.021.574.47.383.704.964.704 1.746V48h-1.248zm-.528-3.035l-.691.023c-.52.016-.906.11-1.16.282-.254.171-.381.433-.381.785 0 .504.289.755.867.755.414 0 .744-.119.99-.357.25-.238.375-.555.375-.95v-.538zm8.818.656c0 .773-.279 1.383-.837 1.828-.555.446-1.328.668-2.32.668-.915 0-1.723-.172-2.426-.515v-1.688c.578.258 1.066.44 1.464.545.403.105.77.158 1.102.158.398 0 .703-.076.914-.228.215-.153.322-.38.322-.68a.738.738 0 0 0-.14-.445 1.536 1.536 0 0 0-.416-.381c-.18-.121-.55-.315-1.108-.58-.523-.246-.916-.483-1.177-.71a2.663 2.663 0 0 1-.627-.79 2.258 2.258 0 0 1-.235-1.055c0-.758.256-1.353.768-1.787.515-.434 1.226-.65 2.133-.65.445 0 .869.052 1.271.158a8.7 8.7 0 0 1 1.271.445l-.585 1.412a8.49 8.49 0 0 0-1.137-.392 3.615 3.615 0 0 0-.879-.112c-.344 0-.607.08-.791.24a.792.792 0 0 0-.275.628c0 .16.037.3.11.421.075.117.192.233.352.346.165.11.55.309 1.155.598.8.383 1.35.767 1.646 1.154.297.383.445.853.445 1.412zm4.073 2.496c-2.04 0-3.059-1.119-3.059-3.357 0-1.113.278-1.963.832-2.55.555-.589 1.35-.884 2.385-.884.758 0 1.438.149 2.04.446l-.528 1.382a8.328 8.328 0 0 0-.785-.275 2.47 2.47 0 0 0-.727-.111c-.93 0-1.394.66-1.394 1.98 0 1.281.464 1.922 1.394 1.922.344 0 .662-.045.955-.135a3.53 3.53 0 0 0 .879-.433v1.529c-.29.184-.582.31-.879.38-.293.071-.664.106-1.113.106zm7.172-6.79c.242 0 .443.017.603.052l-.135 1.676a2.045 2.045 0 0 0-.527-.059c-.57 0-1.016.147-1.336.44-.316.292-.474.703-.474 1.23V48h-1.788v-6.55h1.354l.264 1.1h.087c.204-.366.477-.661.82-.884.349-.226.725-.34 1.132-.34zm1.717-1.571c0-.582.324-.873.972-.873.649 0 .973.29.973.873 0 .277-.082.494-.246.65-.16.153-.403.229-.727.229-.648 0-.972-.293-.972-.88zM47.26 48h-1.787v-6.55h1.787V48zm5.478.117c-.77 0-1.373-.28-1.81-.838h-.094c.063.547.094.864.094.95v2.654H49.14v-9.434h1.453l.252.85h.082c.418-.649 1.037-.973 1.857-.973.774 0 1.38.299 1.817.897.437.597.656 1.427.656 2.49 0 .7-.104 1.306-.31 1.822-.204.516-.495.908-.874 1.178-.379.27-.824.404-1.336.404zm-.527-5.361c-.441 0-.764.137-.967.41-.203.27-.309.717-.316 1.342v.193c0 .703.103 1.207.31 1.512.211.305.543.457.996.457.801 0 1.201-.66 1.201-1.98 0-.645-.1-1.127-.298-1.448-.196-.324-.504-.486-.926-.486zm7.283 3.937c.313 0 .688-.068 1.125-.205v1.33c-.445.2-.992.3-1.64.3-.715 0-1.237-.18-1.565-.54-.324-.363-.486-.906-.486-1.629v-3.158h-.856v-.756l.985-.597.515-1.383h1.143v1.394h1.834v1.342h-1.834v3.158c0 .254.07.442.21.563.145.12.335.181.57.181z" fill="#C75240"/><defs><linearGradient id="a" x1="31" x2="31" y2="24" gradientUnits="userSpaceOnUse"><stop stop-color="#6B342B"/><stop offset="1" stop-color="#E64C35"/></linearGradient></defs></svg>