<svg width="60" height="60" viewBox="0 0 60 60" fill="none" xmlns="http://www.w3.org/2000/svg"><path d="M21.509 35.026a3.531 3.531 0 0 0 3.527-3.528V20.51a3.531 3.531 0 0 0-3.527-3.527 3.532 3.532 0 0 0-3.529 3.527V31.5a3.532 3.532 0 0 0 3.529 3.527zM13.017 36.025a3.031 3.031 0 0 0 3.027-3.03v-8.99a3.03 3.03 0 0 0-3.027-3.027 3.032 3.032 0 0 0-3.028 3.027v8.99c0 1.672 1.358 3.03 3.028 3.03zM23.566 15.45a5.47 5.47 0 0 1 3.406 5.06v3.71c.655-.244.534-.183 6.2-.183l-5.74-21.423a3.53 3.53 0 0 0-4.32-2.493 3.524 3.524 0 0 0-2.496 4.32l2.95 11.008zM49.538 3.6c-1.56-2.697-5.646-2.192-6.464.853l-5.247 19.584c2.434 0 4.358.795 5.895 2.331l.62.62 5.548-20.71a3.508 3.508 0 0 0-.352-2.678z" fill="#C75240"/><path d="M44.785 30.169l-2.433-2.432a5.981 5.981 0 0 0-4.26-1.765h-10.09c-.56 0-1.03.449-1.03 1.03a6.031 6.031 0 0 0 6.024 6.025c5.391 0 5.14-.047 5.445.127.54.332 1.517 2.036 1.517 3.97 0 .485-.36.896-.84.96-6.925.923-12.146 6.895-12.146 13.893a.968.968 0 1 1-1.936 0c0-7.652 5.487-14.228 12.91-15.662a4.259 4.259 0 0 0-.507-1.352h-4.443a7.947 7.947 0 0 1-6.063-2.808c-.554 4.591-6.29 6.49-9.46 3.024-1.383 2.82-5.002 3.665-7.484 1.748v7.557C9.989 53.04 16.949 60 25.504 60h6.994c8.555 0 15.514-6.96 15.514-15.516v-6.523a11.02 11.02 0 0 0-3.227-7.792z" fill="#C75240"/></svg>