<svg width="340" height="300" viewBox="0 0 340 300" fill="none" xmlns="http://www.w3.org/2000/svg"><g filter="url(#a)"><mask id="b" maskUnits="userSpaceOnUse" x="49" y="71" width="159" height="160"><path d="M196.998 156.754c-4.387-2.457-8.521-5.547-12.296-9.218a59.488 59.488 0 0 1-4.633-5.076l-.08-.13v.052c-.067.814-1.119 11.948-22.656 22.866-22.369 11.35-59.06 29.979-59.06 29.979l15.647-47.945 13.62-6.928-11.197 34.22s2.682-1.374 27.265-13.83c23.985-12.159 29.632-20.943 28.415-31.232-1.406-3.075-2.5-6.26-3.357-9.473-4.236-16.174-1.543-33.834 8.17-48.234l-.029-.183-42.709 10.136a60.263 60.263 0 0 1-9.065 12.031 55.154 55.154 0 0 1-5.542 5.007 59.598 59.598 0 0 1-21.38 10.864c-16.25 4.421-34.013 1.834-48.518-7.878l-.079.028 11.11 46.761a60.217 60.217 0 0 1 10.578 8.219 63.716 63.716 0 0 1 4.073 4.375l.026.026c.046-.473.755-11.785 22.63-22.892 22.369-11.35 59.061-29.978 59.061-29.978l-15.675 47.918-13.619 6.928 11.196-34.22s-2.682 1.375-27.265 13.83c-23.437 11.916-29.349 20.546-28.476 30.552a59.495 59.495 0 0 1 4.281 11.873c3.752 15.289 1.331 31.765-7.263 45.546l42.919-10.192a59.034 59.034 0 0 1 8.987-11.898c1.603-1.649 3.261-3.14 4.972-4.58a59.202 59.202 0 0 1 22.603-11.484c15.992-4.155 33.441-1.512 47.681 7.942l-10.335-43.782z" fill="#F2F2F2"/></mask><g mask="url(#b)"><path d="M272.113 80.783L14.881 43.935l61.65 240.933L272.113 80.783z" fill="#fff"/></g></g><path d="M272.113 80.783v204.085H76.532L272.113 80.783z" fill="#474A4F" filter="url(#c)"/><path d="M179.776 128.986L207.275 0l121.379 143.951-67.298 66.99-81.58-81.955z" fill="#474A4F"/><defs><filter id="a" x="-21.259" y="22.676" width="285.27" height="285.259" filterUnits="userSpaceOnUse" color-interpolation-filters="sRGB"><feFlood flood-opacity="0" result="BackgroundImageFix"/><feColorMatrix in="SourceAlpha" values="0 0 0 0 0 0 0 0 0 0 0 0 0 0 0 0 0 0 127 0"/><feOffset dx="-7.086" dy="14.173"/><feGaussianBlur stdDeviation="7.086"/><feColorMatrix values="0 0 0 0 0 0 0 0 0 0 0 0 0 0 0 0 0 0 0.25 0"/><feBlend in2="BackgroundImageFix" result="effect1_dropShadow"/><feBlend in="SourceGraphic" in2="effect1_dropShadow" result="shape"/></filter><filter id="c" x="34.014" y="38.266" width="252.272" height="260.775" filterUnits="userSpaceOnUse" color-interpolation-filters="sRGB"><feFlood flood-opacity="0" result="BackgroundImageFix"/><feColorMatrix in="SourceAlpha" values="0 0 0 0 0 0 0 0 0 0 0 0 0 0 0 0 0 0 127 0"/><feOffset dx="-14.173" dy="-14.173"/><feGaussianBlur stdDeviation="14.173"/><feColorMatrix values="0 0 0 0 0 0 0 0 0 0 0 0 0 0 0 0 0 0 0.15 0"/><feBlend in2="BackgroundImageFix" result="effect1_dropShadow"/><feBlend in="SourceGraphic" in2="effect1_dropShadow" result="shape"/></filter></defs></svg>