<svg width="46" height="55" viewBox="0 0 46 55" fill="none" xmlns="http://www.w3.org/2000/svg"><g clip-path="url(#a)"><path d="M23 23.812c-.314 0-.633-.084-.91-.243l-2.892-1.711c-.43-.244-.22-.329-.08-.375.577-.202.694-.244 1.309-.596.065-.037.15-.023.215.02l2.222 1.316c.08.047.192.047.267 0l8.658-4.997a.277.277 0 0 0 .131-.234V6.998a.28.28 0 0 0-.136-.239l-8.653-4.992a.271.271 0 0 0-.267 0l-8.649 4.997a.274.274 0 0 0-.135.239v9.989c0 .094.051.188.136.23l2.371 1.368c1.29.643 2.077-.112 2.077-.876V7.85c0-.14.112-.248.253-.248h1.097c.136 0 .253.108.253.248v9.868c0 1.715-.937 2.7-2.564 2.7-.502 0-.895 0-1.992-.544l-2.269-1.308a1.823 1.823 0 0 1-.91-1.58V6.998c0-.647.348-1.256.91-1.58L22.09.423a1.898 1.898 0 0 1 1.82 0l8.657 5.001c.563.324.91.928.91 1.58v9.989c0 .647-.347 1.252-.91 1.58l-8.658 4.997c-.276.159-.59.243-.91.243zm6.989-9.848c0-1.87-1.266-2.367-3.924-2.719-2.69-.356-2.962-.539-2.962-1.167 0-.52.23-1.214 2.222-1.214 1.777 0 2.433.384 2.705 1.584a.25.25 0 0 0 .243.197h1.125c.07 0 .136-.028.183-.08a.261.261 0 0 0 .066-.192c-.174-2.067-1.547-3.028-4.322-3.028-2.47 0-3.942 1.04-3.942 2.79 0 1.893 1.467 2.418 3.834 2.652 2.836.277 3.056.694 3.056 1.252 0 .966-.778 1.378-2.601 1.378-2.292 0-2.794-.576-2.963-1.716a.248.248 0 0 0-.248-.21h-1.12a.247.247 0 0 0-.249.248c0 1.458.792 3.197 4.585 3.197 2.737-.005 4.312-1.088 4.312-2.972z" fill="#CDD7D6"/></g><path d="M9.06 48H6.753l-3.727-6.48h-.052c.074 1.144.111 1.96.111 2.449V48H1.461v-8.566h2.29l3.722 6.416h.04a51.954 51.954 0 0 1-.087-2.362v-4.054H9.06V48zm3.446-3.287c0 .648.105 1.139.316 1.47.215.333.563.499 1.043.499.477 0 .819-.164 1.026-.492.21-.333.316-.825.316-1.477 0-.648-.105-1.135-.316-1.46-.211-.323-.557-.485-1.037-.485-.477 0-.82.162-1.032.486-.21.32-.316.806-.316 1.459zm4.53 0c0 1.066-.282 1.9-.845 2.502-.562.601-1.345.902-2.35.902-.628 0-1.183-.136-1.663-.41a2.767 2.767 0 0 1-1.108-1.19c-.258-.515-.386-1.117-.386-1.804 0-1.07.279-1.903.838-2.496.558-.594 1.343-.89 2.355-.89.629 0 1.183.136 1.664.41.48.273.85.665 1.107 1.177.258.512.387 1.111.387 1.799zm3.55 3.404c-.77 0-1.375-.299-1.816-.896-.438-.598-.657-1.426-.657-2.485 0-1.074.223-1.91.668-2.508.45-.601 1.067-.902 1.852-.902.824 0 1.453.32 1.887.961h.058a7.31 7.31 0 0 1-.135-1.306v-2.098h1.793V48h-1.37l-.346-.85h-.077c-.406.645-1.025.967-1.857.967zm.627-1.424c.457 0 .79-.133 1.002-.398.215-.266.332-.717.351-1.354v-.193c0-.703-.109-1.207-.328-1.512-.215-.304-.566-.457-1.054-.457-.399 0-.71.17-.932.51-.219.336-.328.826-.328 1.47 0 .645.111 1.13.334 1.454.223.32.54.48.955.48zm7.605-4.095c-.379 0-.675.12-.89.363-.215.238-.338.578-.37 1.02h2.508c-.007-.442-.123-.782-.345-1.02-.223-.242-.524-.363-.903-.363zm.252 5.52c-1.054 0-1.879-.292-2.472-.874-.594-.582-.891-1.406-.891-2.472 0-1.098.273-1.946.82-2.544.551-.601 1.31-.902 2.28-.902.925 0 1.646.264 2.162.791.515.528.773 1.256.773 2.186v.867h-4.224c.02.508.17.904.45 1.19.282.285.677.427 1.184.427.395 0 .768-.04 1.12-.123a5.604 5.604 0 0 0 1.101-.392v1.382a4.107 4.107 0 0 1-1.002.346c-.355.078-.789.117-1.3.117zm3.873-.956c0-.328.088-.576.264-.744.176-.168.432-.252.768-.252.324 0 .574.086.75.258.18.172.27.418.27.738 0 .309-.09.553-.27.733-.18.175-.43.263-.75.263-.328 0-.582-.086-.762-.258-.18-.175-.27-.422-.27-.738zm2.918 3.358a3.97 3.97 0 0 1-1.072-.13V48.88c.313.078.598.117.855.117.399 0 .684-.125.856-.375.172-.246.258-.633.258-1.16v-8.027h1.816v8.015c0 1-.228 1.762-.685 2.285-.457.524-1.133.785-2.028.785zm9.3-4.465c0 .672-.235 1.183-.704 1.535-.465.351-1.162.527-2.092.527a6.39 6.39 0 0 1-1.218-.1 4.488 4.488 0 0 1-.944-.28V46.26a6.25 6.25 0 0 0 1.12.392c.417.106.784.158 1.1.158.65 0 .974-.187.974-.562a.46.46 0 0 0-.13-.34c-.085-.09-.234-.19-.445-.299a10.37 10.37 0 0 0-.844-.392c-.503-.211-.875-.407-1.113-.586a1.695 1.695 0 0 1-.515-.615c-.106-.235-.159-.522-.159-.862 0-.582.225-1.031.674-1.347.453-.32 1.094-.48 1.922-.48.79 0 1.557.171 2.303.515l-.54 1.289a9.885 9.885 0 0 0-.92-.346 2.887 2.887 0 0 0-.872-.135c-.528 0-.791.143-.791.428 0 .16.084.299.252.416.172.117.545.291 1.119.522.512.207.887.4 1.125.58.238.18.414.386.527.62.113.235.17.514.17.839z" fill="#CDD7D6"/><defs><clipPath id="a"><path fill="#fff" transform="translate(12.5)" d="M0 0h21v24H0z"/></clipPath></defs></svg>