<svg width="56" height="56" viewBox="0 0 56 56" fill="none" xmlns="http://www.w3.org/2000/svg"><path d="M43.185 11.05c-.084-.308-.15-.54-.205-.727l1.755-4.378a.944.944 0 0 0-.402-1.157C37.371.812 32.77 0 28 0c-4.77 0-9.37.812-16.333 4.788a.944.944 0 0 0-.402 1.157l1.755 4.378c-.056.186-.121.42-.205.727C9.09 24.136 8.419 30.744 10.63 32.47A25.386 25.386 0 0 0 22.4 37.213v2.921a.933.933 0 0 0 1.867 0v-2.856a9.401 9.401 0 0 0 3.733.99 9.402 9.402 0 0 0 3.733-.99v2.856a.933.933 0 1 0 1.867 0v-2.92a25.469 25.469 0 0 0 11.779-4.742c2.202-1.727 1.53-8.335-2.194-21.42zm-4.918 15.083C38.267 31.65 31.379 36.4 28 36.4c-3.379 0-10.267-4.75-10.267-10.267V21.15c8.12-1.569 13.011-4.023 14.738-5.013 1.083 1.213 3.518 3.761 5.796 4.835v5.161zm1.4-12.553C35.943 11.648 30.109 11.2 28 11.2c-2.11 0-7.942.448-11.667 2.38L13.3 6.01C19.507 2.586 23.688 1.868 28 1.868c4.312 0 8.493.718 14.7 4.144l-3.033 7.569z" fill="#C75240"/><path d="M30.215 30.073a3.757 3.757 0 0 1-4.431 0 .933.933 0 1 0-1.169 1.454 5.572 5.572 0 0 0 6.769 0 .934.934 0 1 0-1.169-1.454zM35.467 23.333a1.867 1.867 0 1 1-3.734 0 1.867 1.867 0 0 1 3.734 0zM24.267 23.333a1.867 1.867 0 1 1-3.734 0 1.867 1.867 0 0 1 3.733 0zM26.134 7.467h.933V8.4a.933.933 0 0 0 1.866 0v-.933h.934a.933.933 0 0 0 0-1.867h-.934v-.933a.933.933 0 0 0-1.866 0V5.6h-.933a.933.933 0 0 0 0 1.867zM27.067 53.9l-8.671-2.604a.941.941 0 0 1-.663-.896v-3.155l-3.22-1.614a.926.926 0 0 1-.41-1.251l1.008-2.016 1.026-2.04C5.72 41.769 0 46.959 0 55.067c0 .515.418.933.933.933h26.134v-2.1zM39.875 40.335l1.014 2.038 1.008 2.007a.927.927 0 0 1-.41 1.25l-3.22 1.615V50.4a.941.941 0 0 1-.663.896l-8.67 2.604V56h26.132a.933.933 0 0 0 .934-.933c0-8.085-5.686-13.269-16.125-14.732z" fill="#C75240"/><path d="M27.067 51.94v-3.79l-7.738-7.747a.962.962 0 0 0-.662-.27h-.355l-.961 1.904-1.167 2.343 2.903 1.456a.923.923 0 0 1 .513.83v3.043l7.467 2.23zM38.65 42.056l-.953-1.923h-.364a.964.964 0 0 0-.663.271l-7.737 7.746v3.79l7.467-2.23v-3.043a.923.923 0 0 1 .513-.831l2.903-1.456-1.167-2.324z" fill="#C75240"/></svg>