<svg width="30" height="55" viewBox="0 0 30 55" fill="none" xmlns="http://www.w3.org/2000/svg"><path d="M10.012 10.207h-.946l-.515 2.648h.84c.554 0 .968-.105 1.242-.316.269-.207.453-.559.547-1.047.093-.469.05-.8-.121-.996-.176-.191-.524-.289-1.047-.289zM15 5.688C8.37 5.688 3 8.516 3 12c0 3.484 5.37 6.312 12 6.312S27 15.484 27 12c0-3.484-5.37-6.312-12-6.312zm-3.262 7.453c-.26.25-.572.437-.914.55-.336.105-.765.164-1.285.164H8.355l-.324 1.68h-1.38L7.884 9.21h2.648c.797 0 1.379.207 1.746.624.364.418.477 1.005.328 1.755a2.865 2.865 0 0 1-.304.848c-.15.262-.34.5-.563.703zm4.028.714l.543-2.8c.062-.317.039-.535-.072-.653-.104-.113-.335-.172-.686-.172h-1.09l-.703 3.625h-1.371l1.23-6.328h1.367l-.328 1.684h1.22c.77 0 1.296.132 1.586.398.293.27.378.703.266 1.301l-.576 2.945h-1.386zm7.593-2.265a2.76 2.76 0 0 1-.863 1.55 2.46 2.46 0 0 1-.918.55c-.336.106-.765.165-1.284.165h-1.18l-.328 1.68h-1.38l1.232-6.324h2.648c.797 0 1.379.207 1.746.629.363.414.477 1 .328 1.75h-.001zm-2.593-1.383h-.942l-.515 2.648h.836c.558 0 .972-.105 1.242-.316.273-.207.457-.559.551-1.047.093-.469.05-.8-.126-.996-.17-.191-.523-.289-1.046-.289zM5.766 43.465h.597c.559 0 .977-.11 1.254-.328.278-.223.416-.545.416-.967 0-.426-.117-.74-.351-.943-.23-.204-.594-.305-1.09-.305h-.826v2.543zm4.101-1.36c0 .922-.289 1.627-.867 2.116-.574.488-1.393.732-2.455.732h-.78V48H3.95v-8.566h2.737c1.039 0 1.828.224 2.367.673.543.446.814 1.112.814 1.998zM18.504 48h-1.81v-3.697H13.3V48h-1.817v-8.566h1.817v3.357h3.392v-3.357h1.81V48zm3.984-4.535h.598c.559 0 .977-.11 1.254-.328.277-.223.416-.545.416-.967 0-.426-.117-.74-.352-.943-.23-.204-.593-.305-1.09-.305h-.826v2.543zm4.102-1.36c0 .922-.29 1.627-.867 2.116-.575.488-1.393.732-2.455.732h-.78V48h-1.816v-8.566h2.736c1.04 0 1.828.224 2.367.673.543.446.815 1.112.815 1.998z" fill="#CDD7D6"/></svg>