<svg width="40" height="55" viewBox="0 0 40 55" fill="currentColor" xmlns="http://www.w3.org/2000/svg"><path d="M28.156.083c3.033.525 3.893 2.598 3.829 4.77L32 4.822 30.635 22.71 12.89 23.926h.016c-1.473-.062-4.756-.197-4.906-4.787l1.645-3 2.819 6.586.503 1.172 2.805-9.144-.03.007.016-.03 9.255 2.956-1.396-5.431-.99-3.9 8.82-.569-.615-.51L24.5 2.114 28.159.073l-.003.01zM8 19.089v.026-.029.003zm5.13-14.016c3.561-3.533 8.157-5.621 9.922-3.84 1.762 1.777-.105 6.105-3.673 9.636-3.563 3.532-8.103 5.734-9.864 3.957-1.766-1.777.045-6.217 3.612-9.75l.003-.003zM7.777 43.236h.586c.575 0 .998-.095 1.272-.287.273-.191.41-.492.41-.902 0-.406-.14-.695-.422-.867-.277-.172-.709-.258-1.295-.258h-.55v2.314zm0 1.477V48H5.961v-8.566h2.496c1.164 0 2.025.213 2.584.638.559.422.838 1.065.838 1.928 0 .504-.139.953-.416 1.348-.277.39-.67.697-1.178.92A345.263 345.263 0 0 0 12.805 48h-2.016l-2.045-3.287h-.967zM18.383 48l-.24-.838h-.094a1.905 1.905 0 0 1-.815.71 2.809 2.809 0 0 1-1.2.245c-.77 0-1.35-.205-1.741-.615-.39-.414-.586-1.008-.586-1.781v-4.272h1.787v3.826c0 .473.084.828.252 1.067.168.234.436.351.803.351.5 0 .861-.166 1.084-.498.223-.336.334-.89.334-1.664V41.45h1.787V48h-1.371zm6.89-6.674c.774 0 1.38.303 1.817.908.437.602.656 1.428.656 2.479 0 1.082-.226 1.92-.68 2.514-.449.593-1.062.89-1.84.89-.769 0-1.372-.28-1.81-.838h-.123l-.299.721H21.63v-9.117h1.787v2.12c0 .27-.023.702-.07 1.296h.07c.418-.649 1.037-.973 1.857-.973zm-.574 1.43c-.441 0-.764.137-.967.41-.203.27-.308.717-.316 1.342v.193c0 .703.104 1.207.31 1.512.212.305.544.457.997.457.367 0 .658-.168.873-.504.218-.34.328-.832.328-1.476 0-.645-.11-1.127-.328-1.448-.219-.324-.518-.486-.897-.486zm3.586-1.307h1.957l1.236 3.686c.106.32.178.699.217 1.137h.035c.043-.403.127-.782.252-1.137l1.213-3.686h1.916l-2.771 7.389c-.254.684-.617 1.195-1.09 1.535-.469.34-1.018.51-1.646.51-.31 0-.612-.033-.909-.1v-1.418c.215.051.45.076.703.076.317 0 .592-.097.827-.293.238-.191.423-.482.556-.873l.106-.322-2.602-6.504z" fill="currentColor"/></svg>