<svg width="60" height="60" viewBox="0 0 60 60" fill="none" xmlns="http://www.w3.org/2000/svg"><path d="M55.185 15.444c-.072-1.579-.072-3.085-.072-4.592 0-1.22-.933-2.152-2.152-2.152-8.969 0-15.785-2.583-21.453-8.108a2.214 2.214 0 0 0-3.014 0C22.826 6.117 16.01 8.7 7.041 8.7c-1.22 0-2.152.932-2.152 2.152 0 1.507 0 3.014-.072 4.592C4.53 30.51 4.1 51.174 29.283 59.856l.718.144.717-.144c25.113-8.681 24.754-29.273 24.467-44.412zM28.279 36.323c-.43.359-.933.574-1.507.574h-.071a2.02 2.02 0 0 1-1.507-.718l-6.673-7.39 3.229-2.87 5.238 5.812L38.61 20.68l2.942 3.158-13.274 12.484z" fill="#C75240"/></svg>