<svg width="56" height="56" viewBox="0 0 56 56" fill="none" xmlns="http://www.w3.org/2000/svg"><path d="M48.999 15.28a.438.438 0 0 0-.437-.405h-7.875v-2.188C40.687 5.691 34.996 0 28 0c-6.996 0-12.688 5.691-12.688 12.688v2.187H7.437a.438.438 0 0 0-.436.404L3.94 55.53a.436.436 0 0 0 .436.471h47.25a.438.438 0 0 0 .436-.47L49 15.28zm-30.187-2.592C18.812 7.622 22.934 3.5 28 3.5c5.066 0 9.187 4.122 9.187 9.188v2.187H18.812v-2.188zm-1.75 14.437a4.38 4.38 0 0 1-4.375-4.375c0-1.746.875-3.32 2.625-4.01v4.01c0 .965.786 1.75 1.75 1.75.965 0 1.75-.785 1.75-1.75v-4.007c1.75.69 2.625 2.275 2.625 4.007a4.38 4.38 0 0 1-4.375 4.375zm21.875 0a4.38 4.38 0 0 1-4.375-4.375c0-1.746.875-3.32 2.625-4.01v4.01c0 .965.786 1.75 1.75 1.75.965 0 1.75-.785 1.75-1.75v-4.007c1.75.69 2.625 2.275 2.625 4.007a4.38 4.38 0 0 1-4.375 4.375z" fill="#C75240"/></svg>