<svg width="60" height="60" viewBox="0 0 60 60" fill="none" xmlns="http://www.w3.org/2000/svg"><g clip-path="url(#a)"><path d="M59.557 7.866c0-.141-.142-.283-.213-.283-.142 0-.284 0-.355.07l-6.383 6.242L46.008 7.3 52.393.915a.343.343 0 0 0 0-.496c-.071-.071-.071-.071-.142-.071-4.823-1.064-9.788.354-13.406 3.688-3.405 3.405-2.553 7.377-1.986 10.001.07.355.142.78.213 1.064-2.27 2.412-19.435 19.648-21.989 22.06-.283-.071-.567-.142-.922-.213-2.624-.639-6.454-1.56-10 1.915C.825 42.409-.593 47.374.47 52.127c.072.213.214.283.426.283.071 0 .142-.07.142-.07l6.384-6.242 6.597 6.596-6.384 6.384a.343.343 0 0 0 0 .496c.07.071.07.071.142.071.993.213 2.057.355 3.12.355 3.83 0 7.52-1.419 10.285-4.114 3.405-3.405 2.554-7.377 1.986-10.001-.07-.355-.141-.78-.212-1.064 2.27-2.412 19.434-19.648 21.988-22.06l.922.213c2.554.639 6.526 1.632 10.001-1.844 3.334-3.546 4.682-8.511 3.689-13.264z" fill="#C75240"/></g><defs><clipPath id="a"><path fill="#fff" d="M0 0h60v60H0z"/></clipPath></defs></svg>