<svg width="61" height="60" viewBox="0 0 61 60" fill="none" xmlns="http://www.w3.org/2000/svg"><g clip-path="url(#a)"><path d="M47.637 15.527c-1.607.43-3.3.65-5.04.65a19.6 19.6 0 0 1-2.27-.134l-.049-.013.012.012c.172.209 2.49 3.091-.098 10.646-2.686 7.85-7.089 20.728-7.089 20.728l-7.347-14.975 1.632-4.784 5.237 10.695s.319-.944 3.274-9.566c2.883-8.414 2.196-11.8-.466-13.958a19.783 19.783 0 0 1-2.98-1.471c-4.734-2.858-8.169-7.666-9.186-13.32L23.217 0 15.43 12.253c.405 1.582.626 3.238.626 4.942 0 .834-.05 1.656-.16 2.466a19.703 19.703 0 0 1-2.563 7.506c-2.833 4.795-7.641 8.279-13.32 9.321L0 36.513l13.418 8.524a19.936 19.936 0 0 1 6.378-.393h.012c-.098-.122-2.539-2.968.086-10.646 2.686-7.85 7.089-20.727 7.089-20.727l7.334 14.975-1.631 4.783-5.237-10.695s-.319.945-3.275 9.567c-2.808 8.23-2.22 11.64.294 13.81a19.681 19.681 0 0 1 3.754 1.828 19.639 19.639 0 0 1 8.781 12.473l7.825-12.314a19.524 19.524 0 0 1-.613-4.893c0-.76.05-1.497.123-2.233a19.577 19.577 0 0 1 2.71-7.935c2.833-4.673 7.58-8.07 13.136-9.113l-12.547-7.997z" fill="#C75240"/></g><defs><clipPath id="a"><path fill="#fff" d="M0 0h60.184v60H0z"/></clipPath></defs></svg>