<svg width="43" height="55" viewBox="0 0 43 55" fill="currentColor" xmlns="http://www.w3.org/2000/svg"><path d="M27.116 6.855v2.224a3.213 3.213 0 0 1-3.13 3.178h-5.004a2.556 2.556 0 0 0-2.505 2.545v4.77c0 1.358 1.18 2.157 2.505 2.546a8.38 8.38 0 0 0 5.004 0c1.262-.365 2.505-1.1 2.505-2.545v-1.91h-5.004v-.637h7.51c1.455 0 1.998-1.016 2.504-2.54a8.598 8.598 0 0 0 0-5.092c-.36-1.45-1.047-2.54-2.505-2.54l-1.88.001zm-2.814 12.081a.955.955 0 1 1-.94.952.946.946 0 0 1 .94-.953v.001z" fill="currentColor"/><path d="M21.377 1.5c-.803.001-1.604.07-2.394.205-2.12.374-2.506 1.158-2.506 2.604v1.909h5.01v.636h-6.89a3.127 3.127 0 0 0-3.13 2.54 9.364 9.364 0 0 0 0 5.092c.357 1.483 1.207 2.54 2.663 2.54h1.723v-2.288a3.184 3.184 0 0 1 3.13-3.113h5.003a2.524 2.524 0 0 0 2.505-2.546V4.31a2.797 2.797 0 0 0-2.505-2.604 15.628 15.628 0 0 0-2.61-.205zm-2.71 1.536a.955.955 0 1 1 .029 1.91.955.955 0 0 1-.029-1.91zM3.002 43.465H3.6c.558 0 .976-.11 1.254-.328.277-.223.416-.545.416-.967 0-.426-.118-.74-.352-.943-.23-.204-.594-.305-1.09-.305h-.826v2.543zm4.102-1.36c0 .922-.29 1.627-.868 2.116-.574.488-1.392.732-2.455.732h-.78V48H1.187v-8.566h2.736c1.039 0 1.828.224 2.367.673.543.446.815 1.112.815 1.998zm.539-.656H9.6l1.236 3.686c.105.32.178.699.217 1.137h.035c.043-.403.127-.782.252-1.137l1.213-3.686h1.916l-2.772 7.389c-.254.684-.617 1.195-1.09 1.535-.468.34-1.017.51-1.646.51-.309 0-.611-.033-.908-.1v-1.418c.215.051.449.076.703.076.316 0 .592-.097.826-.293.238-.191.424-.482.557-.873l.105-.322-2.601-6.504zm10.529 5.244c.312 0 .687-.068 1.125-.205v1.33c-.445.2-.992.3-1.64.3-.716 0-1.237-.18-1.565-.54-.324-.363-.486-.906-.486-1.629v-3.158h-.856v-.756l.984-.597.516-1.383h1.143v1.394h1.834v1.342h-1.834v3.158c0 .254.07.442.21.563.145.12.334.181.569.181zM26.674 48h-1.787v-3.826c0-.946-.352-1.418-1.055-1.418-.5 0-.861.17-1.084.51-.223.34-.334.89-.334 1.652V48h-1.787v-9.117h1.787v1.857c0 .145-.014.485-.041 1.02l-.041.527h.094c.398-.64 1.031-.96 1.898-.96.77 0 1.354.206 1.752.62.399.414.598 1.008.598 1.781V48zm3.264-3.287c0 .648.105 1.139.316 1.47.215.333.562.499 1.043.499.476 0 .818-.164 1.025-.492.211-.333.317-.825.317-1.477 0-.648-.106-1.135-.317-1.46-.21-.323-.556-.485-1.037-.485-.476 0-.82.162-1.031.486-.211.32-.317.806-.317 1.459zm4.529 0c0 1.066-.282 1.9-.844 2.502-.563.601-1.346.902-2.35.902-.628 0-1.183-.136-1.664-.41a2.766 2.766 0 0 1-1.107-1.19c-.258-.515-.387-1.117-.387-1.804 0-1.07.28-1.903.838-2.496.559-.594 1.344-.89 2.356-.89.628 0 1.183.136 1.664.41.48.273.85.665 1.107 1.177.258.512.387 1.111.387 1.799zM41.99 48h-1.787v-3.826c0-.473-.084-.826-.252-1.06-.168-.239-.435-.358-.803-.358-.5 0-.86.168-1.084.504-.222.332-.334.885-.334 1.658V48h-1.787v-6.55h1.366l.24.837h.1c.199-.316.472-.555.82-.715.351-.164.75-.246 1.195-.246.762 0 1.34.207 1.734.621.395.41.592 1.004.592 1.781V48z" fill="currentColor"/></svg>